<svg width="107" height="30" viewBox="0 0 107 30" fill="none" xmlns="http://www.w3.org/2000/svg">
<path d="M13.0249 11.1504C9.36417 9.27428 5.73876 8.15397 5.82718 4.96198C5.88024 3.15703 7.71947 2.05451 10.1158 2.11675C13.1134 2.19677 15.3151 3.6016 18.3216 8.85639L19.2854 8.64299L18.4189 1.12981C16.5619 0.489632 14.369 0.0717384 12.1407 0.00949897C6.46384 -0.159437 1.09647 1.90336 0.928459 7.93169C0.778137 13.2131 4.83683 15.5338 8.85131 17.6588C12.3971 19.5349 15.7661 20.5752 15.6688 24.0873C15.5981 26.6124 13.8473 27.9372 10.6552 27.8483C7.06513 27.7505 4.71303 26.1056 1.0611 19.6949L0 19.8905L0.813507 27.955C2.97991 29.0042 6.11014 29.8755 9.47028 29.9733C15.2975 30.1334 20.5941 27.9194 20.7709 21.4554C20.9301 15.7827 16.9245 13.2665 13.0249 11.1504Z" fill="#344E63"/>
<path d="M33.2031 9.57617C27.65 9.57617 23.3438 13.9952 23.3438 20.1391C23.3438 25.6606 26.978 29.9907 33.0439 29.9907C37.6332 29.9907 40.6308 27.51 41.7095 23.7579L40.9137 23.3133C40.1533 24.1046 38.5086 25.5272 36.2803 25.5272C32.7698 25.5272 30.0463 23.7134 29.8518 17.9162L41.7538 17.9518C41.8687 13.9952 38.7562 9.57617 33.2031 9.57617ZM35.5198 15.809L29.8518 15.889C29.8518 12.5637 30.8864 11.5589 32.9643 11.5589C34.5206 11.5589 35.5198 12.4036 35.5198 15.5778V15.809Z" fill="#344E63"/>
<path d="M106.206 16.2005L106.923 9.57647C103.448 9.38086 101.573 12.4573 99.8575 14.1466V9.38086L91.5898 11.6659V11.746C93.0312 13.4442 93.5882 15.0535 93.5882 18.0144V22.4689C93.5882 25.7765 93.2699 27.4392 92.6332 29.3241V29.4042H100.981V29.333C100.344 27.4036 100.026 25.7498 100.026 22.4778V16.2894L106.206 16.2005Z" fill="#344E63"/>
<path d="M81.2539 9.57617C75.7008 9.57617 71.3945 13.9952 71.3945 20.1391C71.3945 25.6606 75.0288 29.9907 81.0947 29.9907C85.6839 29.9907 88.6815 27.51 89.7603 23.7579L88.9645 23.3133C88.204 24.1046 86.5594 25.5272 84.3311 25.5272C80.8206 25.5272 78.0971 23.7134 77.9026 17.9162L89.8045 17.9518C89.9195 13.9952 86.7981 9.57617 81.2539 9.57617ZM83.5706 15.809L77.9026 15.889C77.9026 12.5637 78.9372 11.5589 81.0151 11.5589C82.5714 11.5589 83.5706 12.4036 83.5706 15.5778V15.809Z" fill="#344E63"/>
<path d="M67.406 27.2605C66.0531 27.2605 65.0716 26.727 65.0716 24.3619V12.9632H69.82V11.0427H65.0716V5.63672H64.6295L56.8393 11.0427H51.693V5.63672H51.2508L43.0273 11.5495V12.9543H45.2645V24.513C45.2645 28.4519 47.537 29.9901 50.7733 29.9901C53.9655 29.9901 56.0435 28.4519 56.9631 26.9137L56.2734 26.4691C55.7959 26.807 54.9824 27.2516 54.0185 27.2516C52.6656 27.2516 51.6841 26.7181 51.6841 24.353V12.9632H56.3971H56.4325H58.6343V24.5219C58.6343 28.4608 60.9068 29.999 64.1432 29.999C67.3353 29.999 69.4133 28.4608 70.3329 26.9226L69.6432 26.478C69.1745 26.8248 68.361 27.2605 67.406 27.2605Z" fill="#344E63"/>
</svg>
